<mxfile host="65bd71144e">
    <diagram id="3vso-2CknVOCGx9vlFHq" name="Page-1">
        <mxGraphModel dx="2140" dy="731" grid="1" gridSize="10" guides="1" tooltips="1" connect="1" arrows="1" fold="1" page="1" pageScale="1" pageWidth="827" pageHeight="1169" math="0" shadow="0">
            <root>
                <mxCell id="0"/>
                <mxCell id="1" parent="0"/>
                <mxCell id="69" style="edgeStyle=none;html=1;exitX=0.5;exitY=1;exitDx=0;exitDy=0;entryX=0.5;entryY=0;entryDx=0;entryDy=0;" parent="1" source="3" target="13" edge="1">
                    <mxGeometry relative="1" as="geometry"/>
                </mxCell>
                <mxCell id="3" value="Command Parsing and Handling" style="rounded=0;whiteSpace=wrap;html=1;labelBorderColor=none;labelBackgroundColor=none;strokeColor=#006633;" parent="1" vertex="1">
                    <mxGeometry x="354" width="120" height="60" as="geometry"/>
                </mxCell>
                <mxCell id="4" value="Networking and Connection Management" style="rounded=0;whiteSpace=wrap;html=1;strokeColor=#0066CC;" parent="1" vertex="1">
                    <mxGeometry x="-120" width="120" height="60" as="geometry"/>
                </mxCell>
                <mxCell id="5" value="User and Channel Management" style="rounded=0;whiteSpace=wrap;html=1;strokeColor=#FF3333;" parent="1" vertex="1">
                    <mxGeometry x="830" width="120" height="60" as="geometry"/>
                </mxCell>
                <mxCell id="7" value="init server socket" style="rounded=0;whiteSpace=wrap;html=1;" parent="1" vertex="1">
                    <mxGeometry x="-330" y="60" width="180" height="40" as="geometry"/>
                </mxCell>
                <mxCell id="8" value="accept connections" style="rounded=0;whiteSpace=wrap;html=1;" parent="1" vertex="1">
                    <mxGeometry x="-330" y="120" width="180" height="40" as="geometry"/>
                </mxCell>
                <mxCell id="9" value="manage multiple clients" style="rounded=0;whiteSpace=wrap;html=1;" parent="1" vertex="1">
                    <mxGeometry x="-330" y="180" width="180" height="40" as="geometry"/>
                </mxCell>
                <mxCell id="12" value="handle disconnections" style="rounded=0;whiteSpace=wrap;html=1;" parent="1" vertex="1">
                    <mxGeometry x="-330" y="300" width="180" height="40" as="geometry"/>
                </mxCell>
                <mxCell id="61" style="edgeStyle=none;html=1;exitX=1;exitY=0.5;exitDx=0;exitDy=0;entryX=0;entryY=0.5;entryDx=0;entryDy=0;" parent="1" source="13" target="46" edge="1">
                    <mxGeometry relative="1" as="geometry"/>
                </mxCell>
                <mxCell id="13" value="Command parser" style="rounded=0;whiteSpace=wrap;html=1;" parent="1" vertex="1">
                    <mxGeometry x="324" y="100" width="180" height="40" as="geometry"/>
                </mxCell>
                <mxCell id="18" value="NICK&lt;br&gt;USER&lt;br&gt;JOIN&lt;br&gt;PART&lt;br&gt;PRIVMSG&lt;br&gt;QUIT&lt;br&gt;etc." style="whiteSpace=wrap;html=1;rounded=0;" parent="1" vertex="1">
                    <mxGeometry x="326" y="380" width="60" height="110" as="geometry"/>
                </mxCell>
                <mxCell id="43" value="handle multiple connections" style="rounded=0;whiteSpace=wrap;html=1;" parent="1" vertex="1">
                    <mxGeometry x="-330" y="240" width="180" height="40" as="geometry"/>
                </mxCell>
                <mxCell id="46" value="Read and identify incomming commands from clients" style="rounded=0;whiteSpace=wrap;html=1;" parent="1" vertex="1">
                    <mxGeometry x="550" y="100" width="180" height="40" as="geometry"/>
                </mxCell>
                <mxCell id="55" style="edgeStyle=none;html=1;exitX=1;exitY=0.5;exitDx=0;exitDy=0;entryX=0;entryY=0.5;entryDx=0;entryDy=0;" parent="1" source="53" target="18" edge="1">
                    <mxGeometry relative="1" as="geometry"/>
                </mxCell>
                <mxCell id="53" value="Implement core IRC commands" style="rounded=0;whiteSpace=wrap;html=1;" parent="1" vertex="1">
                    <mxGeometry x="80" y="415" width="180" height="40" as="geometry"/>
                </mxCell>
                <mxCell id="54" value="Error handling and response messages (IRC protocol)" style="rounded=0;whiteSpace=wrap;html=1;" parent="1" vertex="1">
                    <mxGeometry x="80" y="575" width="180" height="40" as="geometry"/>
                </mxCell>
                <mxCell id="58" value="" style="edgeStyle=none;html=1;" parent="1" source="56" target="57" edge="1">
                    <mxGeometry relative="1" as="geometry"/>
                </mxCell>
                <mxCell id="56" value="User management" style="rounded=0;whiteSpace=wrap;html=1;" parent="1" vertex="1">
                    <mxGeometry x="980" y="70" width="180" height="40" as="geometry"/>
                </mxCell>
                <mxCell id="57" value="Storing nicknames, status, etc." style="whiteSpace=wrap;html=1;rounded=0;" parent="1" vertex="1">
                    <mxGeometry x="1186" y="75" width="176" height="30" as="geometry"/>
                </mxCell>
                <mxCell id="65" style="edgeStyle=none;html=1;exitX=1;exitY=0.5;exitDx=0;exitDy=0;entryX=0;entryY=0.5;entryDx=0;entryDy=0;" parent="1" source="59" target="64" edge="1">
                    <mxGeometry relative="1" as="geometry"/>
                </mxCell>
                <mxCell id="59" value="Channel management" style="rounded=0;whiteSpace=wrap;html=1;" parent="1" vertex="1">
                    <mxGeometry x="980" y="130" width="180" height="40" as="geometry"/>
                </mxCell>
                <mxCell id="64" value="channel creation, joining, leaving and broadcasting messages to channel members" style="whiteSpace=wrap;html=1;rounded=0;" parent="1" vertex="1">
                    <mxGeometry x="1206" y="117.5" width="130" height="65" as="geometry"/>
                </mxCell>
                <mxCell id="66" value="Handling data structures to store client and channel information" style="rounded=0;whiteSpace=wrap;html=1;" parent="1" vertex="1">
                    <mxGeometry x="980" y="190" width="186" height="50" as="geometry"/>
                </mxCell>
            </root>
        </mxGraphModel>
    </diagram>
</mxfile>